<svg width="24" height="24" viewBox="0 0 24 24" fill="none" xmlns="http://www.w3.org/2000/svg">
<path d="M20.9062 1.875H18.75V0.75C18.75 0.335812 18.4142 0 18 0C17.5858 0 17.25 0.335812 17.25 0.75V1.875H6.75V0.75C6.75 0.335812 6.41423 0 6 0C5.58577 0 5.25 0.335812 5.25 0.75V1.875H3.09375C1.38783 1.875 0 3.26283 0 4.96875V20.9062C0 22.6122 1.38783 24 3.09375 24H20.9062C22.6122 24 24 22.6122 24 20.9062V4.96875C24 3.26283 22.6122 1.875 20.9062 1.875ZM22.5 20.9062C22.5 21.7865 21.7865 22.5 20.9062 22.5H3.09375C2.21353 22.5 1.5 21.7865 1.5 20.9062V8.48438C1.5 8.35495 1.60495 8.25 1.73438 8.25H22.2656C22.395 8.25 22.5 8.35495 22.5 8.48438V20.9062Z" fill="white"/>
</svg>
