<svg width="24" height="24" viewBox="0 0 24 24" fill="none" xmlns="http://www.w3.org/2000/svg">
<path d="M1.96549 7.14503V20.993C1.96549 21.8115 2.33503 22.5801 2.98057 23.1317C3.62313 23.6847 4.51737 23.9987 5.45324 24H18.5468C19.4829 23.9987 20.3771 23.6847 21.0194 23.1317C21.665 22.5801 22.0345 21.8115 22.0345 20.993V7.14503C23.3177 6.86839 24.1493 5.86152 23.9776 4.79207C23.8057 3.72284 22.6841 2.923 21.3563 2.92278H17.8131V2.22021C17.8172 1.62939 17.5295 1.06206 17.0146 0.644685C16.4996 0.227532 15.8 -0.00475635 15.0725 7.385e-05H8.92747C8.20002 -0.00475635 7.50042 0.227532 6.98545 0.644685C6.47048 1.06206 6.18285 1.62939 6.18691 2.22021V2.92278H2.64374C1.3159 2.923 0.194315 3.72284 0.0223877 4.79207C-0.149269 5.86152 0.682254 6.86839 1.96549 7.14503ZM18.5468 22.8759H5.45324C4.27002 22.8759 3.34956 22.0504 3.34956 20.993V7.19443H20.6504V20.993C20.6504 22.0504 19.73 22.8759 18.5468 22.8759ZM7.57098 2.22021C7.56638 1.92754 7.70803 1.64585 7.96376 1.43925C8.21922 1.23265 8.56686 1.11914 8.92747 1.12419H15.0725C15.4331 1.11914 15.7808 1.23265 16.0362 1.43925C16.292 1.64563 16.4336 1.92754 16.429 2.22021V2.92278H7.57098V2.22021ZM2.64374 4.0469H21.3563C22.0442 4.0469 22.6019 4.49984 22.6019 5.05861C22.6019 5.61737 22.0442 6.07031 21.3563 6.07031H2.64374C1.95576 6.07031 1.39808 5.61737 1.39808 5.05861C1.39808 4.49984 1.95576 4.0469 2.64374 4.0469Z" fill="#B2BCEF"/>
<path d="M7.50269 8.00146C7.22651 8.00146 7.00269 8.30133 7.00269 8.67132V21.3316C7.00269 21.7013 7.22651 22.0015 7.50269 22.0015C7.77886 22.0015 8.00269 21.7013 8.00269 21.3316V8.67132C8.00269 8.30133 7.77886 8.00146 7.50269 8.00146Z" fill="#B2BCEF"/>
<path d="M12.5027 8.00146C12.2265 8.00146 12.0027 8.30133 12.0027 8.67132V21.3316C12.0027 21.7013 12.2265 22.0015 12.5027 22.0015C12.7789 22.0015 13.0027 21.7013 13.0027 21.3316V8.67132C13.0027 8.30133 12.7789 8.00146 12.5027 8.00146Z" fill="#B2BCEF"/>
<path d="M17.5027 8.00146C17.2265 8.00146 17.0027 8.30133 17.0027 8.67132V21.3316C17.0027 21.7013 17.2265 22.0015 17.5027 22.0015C17.7789 22.0015 18.0027 21.7013 18.0027 21.3316V8.67132C18.0027 8.30133 17.7789 8.00146 17.5027 8.00146Z" fill="#B2BCEF"/>
</svg>
