<svg width="54" height="54" viewBox="0 0 54 54" fill="none" xmlns="http://www.w3.org/2000/svg">
    <circle cx="27" cy="27" r="25.5" stroke="#2B46CF" stroke-width="3"/>
    <path fill-rule="evenodd" clip-rule="evenodd" d="M31.281 22.719C31.3508 22.7887 31.4062 22.8714 31.444 22.9625C31.4818 23.0537 31.5013 23.1513 31.5013 23.25C31.5013 23.3486 31.4818 23.4463 31.444 23.5374C31.4062 23.6286 31.3508 23.7113 31.281 23.781L26.781 28.281C26.7113 28.3508 26.6285 28.4063 26.5374 28.4441C26.4463 28.4819 26.3486 28.5013 26.25 28.5013C26.1513 28.5013 26.0536 28.4819 25.9625 28.4441C25.8714 28.4063 25.7886 28.3508 25.719 28.281L23.469 26.031C23.3992 25.9613 23.3439 25.8785 23.3062 25.7874C23.2684 25.6963 23.249 25.5986 23.249 25.5C23.249 25.4014 23.2684 25.3037 23.3062 25.2126C23.3439 25.1215 23.3992 25.0387 23.469 24.969C23.5387 24.8993 23.6215 24.844 23.7126 24.8062C23.8037 24.7685 23.9014 24.749 24 24.749C24.0986 24.749 24.1962 24.7685 24.2873 24.8062C24.3785 24.844 24.4612 24.8993 24.531 24.969L26.25 26.6895L30.219 22.719C30.2886 22.6492 30.3714 22.5937 30.4625 22.5559C30.5536 22.5181 30.6513 22.4987 30.75 22.4987C30.8486 22.4987 30.9463 22.5181 31.0374 22.5559C31.1285 22.5937 31.2113 22.6492 31.281 22.719V22.719Z" fill="#2B46CF"/>
    <path d="M18 18C18 17.2044 18.3161 16.4413 18.8787 15.8787C19.4413 15.3161 20.2044 15 21 15H33C33.7956 15 34.5587 15.3161 35.1213 15.8787C35.6839 16.4413 36 17.2044 36 18V38.25C35.9999 38.3857 35.9631 38.5188 35.8933 38.6351C35.8236 38.7515 35.7236 38.8468 35.604 38.9108C35.4844 38.9748 35.3497 39.0052 35.2142 38.9988C35.0787 38.9923 34.9474 38.9492 34.8345 38.874L27 34.6515L19.1655 38.874C19.0526 38.9492 18.9213 38.9923 18.7858 38.9988C18.6503 39.0052 18.5156 38.9748 18.396 38.9108C18.2764 38.8468 18.1764 38.7515 18.1067 38.6351C18.0369 38.5188 18.0001 38.3857 18 38.25V18ZM21 16.5C20.6022 16.5 20.2206 16.658 19.9393 16.9393C19.658 17.2206 19.5 17.6022 19.5 18V36.849L26.5845 33.126C26.7076 33.0441 26.8521 33.0004 27 33.0004C27.1479 33.0004 27.2924 33.0441 27.4155 33.126L34.5 36.849V18C34.5 17.6022 34.342 17.2206 34.0607 16.9393C33.7794 16.658 33.3978 16.5 33 16.5H21Z" fill="#2B46CF"/>
</svg>
