<svg width="54" height="54" viewBox="0 0 54 54" fill="none" xmlns="http://www.w3.org/2000/svg">
    <circle cx="27" cy="27" r="25.5" stroke="#2B46CF" stroke-width="3"/>
    <path d="M36 15H18C17.2044 15 16.4413 15.3161 15.8787 15.8787C15.3161 16.4413 15 17.2044 15 18V36C15 36.7956 15.3161 37.5587 15.8787 38.1213C16.4413 38.6839 17.2044 39 18 39H36C36.7956 39 37.5587 38.6839 38.1213 38.1213C38.6839 37.5587 39 36.7956 39 36V18C39 17.2044 38.6839 16.4413 38.1213 15.8787C37.5587 15.3161 36.7956 15 36 15V15ZM16.5 20.7855C16.5 20.076 17.172 19.5 18 19.5H36C36.828 19.5 37.5 20.076 37.5 20.7855V36.2145C37.5 36.924 36.828 37.5 36 37.5H18C17.172 37.5 16.5 36.924 16.5 36.2145V20.7855Z" 
    fill="#2B46CF"/>
    <path d="M33 25.5C33.3978 25.5 33.7794 25.342 34.0607 25.0607C34.342 24.7794 34.5 24.3978 34.5 24C34.5 23.6022 34.342 23.2206 34.0607 22.9393C33.7794 22.658 33.3978 22.5 33 22.5C32.6022 22.5 32.2206 22.658 31.9393 22.9393C31.658 23.2206 31.5 23.6022 31.5 24C31.5 24.3978 31.658 24.7794 31.9393 25.0607C32.2206 25.342 32.6022 25.5 33 25.5V25.5ZM25.5 30C25.8978 30 26.2794 29.842 26.5607 29.5607C26.842 29.2794 27 28.8978 27 28.5C27 28.1022 26.842 27.7206 26.5607 27.4393C26.2794 27.158 25.8978 27 25.5 27C25.1022 27 24.7206 27.158 24.4393 27.4393C24.158 27.7206 24 28.1022 24 28.5C24 28.8978 24.158 29.2794 24.4393 29.5607C24.7206 29.842 25.1022 30 25.5 30ZM28.5 25.5C28.8978 25.5 29.2794 25.342 29.5607 25.0607C29.842 24.7794 30 24.3978 30 24C30 23.6022 29.842 23.2206 29.5607 22.9393C29.2794 22.658 28.8978 22.5 28.5 22.5C28.1022 22.5 27.7206 22.658 27.4393 22.9393C27.158 23.2206 27 23.6022 27 24C27 24.3978 27.158 24.7794 27.4393 25.0607C27.7206 25.342 28.1022 25.5 28.5 25.5V25.5ZM21 30C21.3978 30 21.7794 29.842 22.0607 29.5607C22.342 29.2794 22.5 28.8978 22.5 28.5C22.5 28.1022 22.342 27.7206 22.0607 27.4393C21.7794 27.158 21.3978 27 21 27C20.6022 27 20.2206 27.158 19.9393 27.4393C19.658 27.7206 19.5 28.1022 19.5 28.5C19.5 28.8978 19.658 29.2794 19.9393 29.5607C20.2206 29.842 20.6022 30 21 30V30Z" 
    fill="#2B46CF"/>
</svg>
