<svg width="54" height="54" viewBox="0 0 54 54" fill="none" xmlns="http://www.w3.org/2000/svg">
    <circle cx="27" cy="27" r="25.5" stroke="#2B46CF" stroke-width="3"/>
    <path d="M17.866 33.9965L19.2805 29.792H24.49L25.906 33.9965H27.79L22.81 20H20.983L16 33.9965H17.866V33.9965ZM21.916 22.112L24.01 28.346H19.765L21.865 22.112H21.916V22.112ZM35.635 32.6525H35.6875V33.9965H37.3795V26.5625C37.3795 24.2975 35.7085 23.045 33.4105 23.045C30.8065 23.045 29.5255 24.419 29.4115 26.306H31.0735C31.1755 25.229 31.966 24.521 33.349 24.521C34.8055 24.521 35.626 25.301 35.626 26.717V27.8135H32.785C30.3145 27.824 29.002 29.0135 29.002 30.9005C29.002 32.879 30.4375 34.1705 32.5195 34.1705C34.1095 34.1705 35.0935 33.5255 35.6365 32.654L35.635 32.6525ZM32.9905 32.705C31.8625 32.705 30.8065 32.1095 30.8065 30.839C30.8065 29.864 31.4425 29.1665 32.9185 29.1665H35.626V30.4175C35.626 31.7615 34.498 32.705 32.9905 32.705Z" 
    fill="#2B46CF"/>
</svg>
