<svg xmlns="http://www.w3.org/2000/svg" xmlns:xlink="http://www.w3.org/1999/xlink" viewBox="0 0 222.11 79.89"><defs><style>.cls-1{stroke:#3f3f3f;stroke-miterlimit:10;fill:url(#linear-gradient);}.cls-2{fill:#d0e085;}.cls-3{fill:#3f3f3f;}.cls-4{fill:#e085a2;}.cls-5{fill:#85a2e0;}.cls-6{fill:#85e0c3;}</style><linearGradient id="linear-gradient" x1="33.24" y1="-275.33" x2="188.87" y2="-150.96" gradientTransform="matrix(1, 0, 0, -1, 0, -173.2)" gradientUnits="userSpaceOnUse"><stop offset="0.19" stop-color="#c0b6ed"/><stop offset="0.35" stop-color="#cfc5ed"/><stop offset="0.55" stop-color="#ddd2ee"/><stop offset="0.74" stop-color="#e1d6ee"/></linearGradient></defs><g id="Layer_2" data-name="Layer 2"><g id="Layer_1-2" data-name="Layer 1"><path class="cls-1" d="M25.36,79.39c-6.59,0-12.91-3.28-17.58-9.11a35.5,35.5,0,0,1-7.28-22V31.61a35.5,35.5,0,0,1,7.28-22C12.45,3.78,18.77.5,25.36.5H196.75a20.51,20.51,0,0,1,9.51,2.37,25.23,25.23,0,0,1,8.07,6.74,32.5,32.5,0,0,1,5.39,10.1,38,38,0,0,1,1.89,11.9V48.28a38,38,0,0,1-1.89,11.9,32.5,32.5,0,0,1-5.39,10.1A25.23,25.23,0,0,1,206.26,77a20.63,20.63,0,0,1-9.51,2.37Zm8-71.11c-6.83,0-13.38,3.39-18.21,9.44A36.7,36.7,0,0,0,7.6,40.5a36.7,36.7,0,0,0,7.55,22.78c4.83,6,11.38,9.44,18.21,9.44h155.4c6.83,0,13.38-3.39,18.21-9.44a36.7,36.7,0,0,0,7.54-22.78A36.7,36.7,0,0,0,207,17.72c-4.83-6-11.38-9.44-18.21-9.44Z"/><circle class="cls-2" cx="39.06" cy="40.5" r="20"/><path class="cls-3" d="M45.31,40.81a29.64,29.64,0,0,1-2.94,4.6,47.05,47.05,0,0,1-3.31,3.86,43.46,43.46,0,0,1-3.31-3.86,28.23,28.23,0,0,1-2.94-4.6,10.32,10.32,0,0,1-1.25-4.41,7.5,7.5,0,0,1,15,0A10.46,10.46,0,0,1,45.31,40.81ZM39.06,51.4s9-8.53,9-15a9,9,0,1,0-18,0C30.06,42.87,39.06,51.4,39.06,51.4Z"/><path class="cls-3" d="M39.06,39.4a3,3,0,0,1-2.13-.88,3,3,0,0,1,0-4.24,3,3,0,0,1,4.25,0,3,3,0,0,1,0,4.24A3,3,0,0,1,39.06,39.4Zm0,1.5a4.49,4.49,0,1,0-3.19-1.32,4.49,4.49,0,0,0,3.19,1.32Z"/><circle class="cls-4" cx="87.06" cy="40.5" r="20"/><path class="cls-3" d="M96.81,32.33a.77.77,0,0,1,.53.22.79.79,0,0,1,.22.53v13.5a.79.79,0,0,1-.22.54.76.76,0,0,1-.53.21H77.31a.74.74,0,0,1-.53-.21.79.79,0,0,1-.22-.54V33.08a.79.79,0,0,1,.22-.53.75.75,0,0,1,.53-.22Zm-19.5-1.5a2.25,2.25,0,0,0-2.25,2.25v13.5a2.24,2.24,0,0,0,2.25,2.25h19.5a2.26,2.26,0,0,0,1.59-.65,2.29,2.29,0,0,0,.66-1.6V33.08a2.25,2.25,0,0,0-2.25-2.25Z"/><path class="cls-3" d="M79.56,36.08a.79.79,0,0,1,.22-.53.75.75,0,0,1,.53-.22h13.5a.77.77,0,0,1,.53.22.76.76,0,0,1,0,1.07.76.76,0,0,1-.53.21H80.31a.74.74,0,0,1-.53-.21A.79.79,0,0,1,79.56,36.08Zm0,3.75a.79.79,0,0,1,.22-.53.75.75,0,0,1,.53-.22h13.5a.77.77,0,0,1,.53.22.76.76,0,0,1,0,1.07.76.76,0,0,1-.53.21H80.31a.74.74,0,0,1-.53-.21A.79.79,0,0,1,79.56,39.83Zm0,3.75a.79.79,0,0,1,.22-.53.75.75,0,0,1,.53-.22h9a.77.77,0,0,1,.53.22.76.76,0,0,1,0,1.07.76.76,0,0,1-.53.21h-9a.74.74,0,0,1-.53-.21A.79.79,0,0,1,79.56,43.58Z"/><circle class="cls-5" cx="135.06" cy="39.83" r="20"/><path class="cls-3" d="M130.14,29.39a1,1,0,0,0-.33-.27,1,1,0,0,0-.41-.12.85.85,0,0,0-.42.07,1,1,0,0,0-.36.23l-1.55,1.55a2.56,2.56,0,0,0-.68,2.66,26.5,26.5,0,0,0,16.17,16.16,2.55,2.55,0,0,0,2.65-.68l1.55-1.55a1,1,0,0,0,.23-.36,1,1,0,0,0,.07-.42,1,1,0,0,0-.12-.41,1.09,1.09,0,0,0-.27-.33l-3.46-2.69a1.14,1.14,0,0,0-.42-.19,1,1,0,0,0-.45,0l-3.29.82a2.61,2.61,0,0,1-1.33,0,2.66,2.66,0,0,1-1.16-.67l-3.68-3.69a2.58,2.58,0,0,1-.67-1.15,2.61,2.61,0,0,1,0-1.33l.82-3.29a1,1,0,0,0,0-.45,1.07,1.07,0,0,0-.19-.42Zm-2.66-1.22a2.57,2.57,0,0,1,.93-.6,2.71,2.71,0,0,1,1.09-.17,2.81,2.81,0,0,1,1.06.3,2.74,2.74,0,0,1,.84.71l2.69,3.46a2.61,2.61,0,0,1,.48,2.24l-.82,3.29a.89.89,0,0,0,0,.51,1.07,1.07,0,0,0,.26.45l3.69,3.69a1.07,1.07,0,0,0,.45.26,1,1,0,0,0,.51,0l3.29-.82a2.71,2.71,0,0,1,1.17,0,2.57,2.57,0,0,1,1.07.5l3.46,2.69a2.61,2.61,0,0,1,.24,3.91l-1.55,1.55A4.17,4.17,0,0,1,142,51.18,28.11,28.11,0,0,1,124.88,34a4.17,4.17,0,0,1,1.05-4.31l1.56-1.55Z"/><circle class="cls-6" cx="183.06" cy="39.83" r="20"/><path class="cls-3" d="M192.81,48.08a1.47,1.47,0,0,0,1.5-1.5c0-1.5-1.5-6-7.5-6s-7.5,4.5-7.5,6a1.47,1.47,0,0,0,1.5,1.5Zm-12-1.5h0A4.57,4.57,0,0,1,182,44a7.11,7.11,0,0,1,9.72,0,4.64,4.64,0,0,1,1.14,2.58h-12Zm6-9a3,3,0,0,0,2.12-.87,3,3,0,0,0-2.12-5.13,3,3,0,1,0,0,6Zm4.5-3A4.58,4.58,0,0,1,190,37.77a4.6,4.6,0,0,1-1.46,1,4.43,4.43,0,0,1-1.72.34,4.48,4.48,0,0,1-1.73-.34,4.6,4.6,0,0,1-1.46-1,4.77,4.77,0,0,1-1-1.46,4.45,4.45,0,0,1-.34-1.73,4.5,4.5,0,0,1,9,0ZM180.71,41a9.68,9.68,0,0,0-1.84-.37c-.36,0-.71-.05-1.06-.05-6,0-7.5,4.5-7.5,6a1.32,1.32,0,0,0,1.5,1.5h6.32a3.35,3.35,0,0,1-.32-1.5,6.86,6.86,0,0,1,1.63-4.35A8.73,8.73,0,0,1,180.71,41Zm-3,1.08a8.22,8.22,0,0,0-1.38,4.5h-4.5A4.54,4.54,0,0,1,173,44a5.89,5.89,0,0,1,4.74-1.91Zm-5.13-6.75a4.47,4.47,0,1,1,1.31,3.19,4.52,4.52,0,0,1-1.31-3.19Zm4.5-3a3,3,0,1,0,2.12,5.13,3,3,0,0,0-2.12-5.13Z"/></g></g></svg>