<svg xmlns="http://www.w3.org/2000/svg" xmlns:xlink="http://www.w3.org/1999/xlink" viewBox="0 0 147.95 154.14">
    <defs>
        <linearGradient id="linear-gradient" x1="20.57" y1="130.48" x2="127.38" y2="23.66" gradientUnits="userSpaceOnUse">
            <stop offset="0.19" stopColor="#c0b6ed"/>
            <stop offset="0.35" stopColor="#cfc5ed"/>
            <stop offset="0.55" stopColor="#ddd2ee"/>
            <stop offset="0.74" stopColor="#e1d6ee"/>
        </linearGradient>
    </defs>
    <g id="Layer_2" data-name="Layer 2">
        <g id="Layer_1-2" data-name="Layer 1">
        <path style= {{fill:'url(#linear-gradient)'}} className="cls-1" d="M74,0C33.13,0,0,34.52,0,77.07s33.13,77.07,74,77.07,74-34.52,74-77.07S114.82,0,74,0Zm0,148.64c-37.93,0-68.69-32-68.69-71.57S36,5.5,74,5.5s68.7,32,68.7,71.57S111.91,148.64,74,148.64Z"/>
        <circle className="cls-2" cx="102.93" cy="104.14" r="20" style={{fill:"D0E085"}}/>
        <path className="cls-3" d="M113.13,113.11a1.47,1.47,0,0,0,1.5-1.5c0-1.5-1.5-6-7.5-6s-7.5,4.5-7.5,6a1.47,1.47,0,0,0,1.5,1.5Zm-12-1.5h0a4.57,4.57,0,0,1,1.14-2.58,7.11,7.11,0,0,1,9.72,0,4.57,4.57,0,0,1,1.14,2.58h-12Zm6-9A3,3,0,1,0,105,97.49a3,3,0,0,0,2.12,5.12Zm4.5-3a4.45,4.45,0,0,1-.34,1.73,4.63,4.63,0,0,1-1,1.46,4.51,4.51,0,0,1-3.18,1.31,4.43,4.43,0,0,1-1.72-.34,4.49,4.49,0,0,1-1.46-1,4.46,4.46,0,0,1-1.32-3.19,4.5,4.5,0,0,1,9,0ZM101,106a9.63,9.63,0,0,0-1.85-.37c-.35,0-.7,0-1.06,0-6,0-7.5,4.5-7.5,6a1.32,1.32,0,0,0,1.5,1.5h6.33a3.23,3.23,0,0,1-.33-1.5,6.88,6.88,0,0,1,1.64-4.35A8.25,8.25,0,0,1,101,106Zm-3,1.08a8.22,8.22,0,0,0-1.38,4.5h-4.5A4.62,4.62,0,0,1,93.27,109,5.92,5.92,0,0,1,98,107.12Zm-5.13-6.75a4.49,4.49,0,1,1,1.32,3.19,4.53,4.53,0,0,1-1.32-3.19Zm4.5-3a3,3,0,1,0,2.12.88A3,3,0,0,0,97.38,97.36Z"/>
        <circle className="cls-4" cx="102.93" cy="53.14" r="20" style={{fill:"E085A2"}}/>
        <path className="cls-3" d="M112.38,45.61a.75.75,0,0,1,.53.22.79.79,0,0,1,.22.53v13.5a.79.79,0,0,1-.22.54.74.74,0,0,1-.53.21H92.88a.74.74,0,0,1-.53-.21.79.79,0,0,1-.22-.54V46.36a.79.79,0,0,1,.22-.53.75.75,0,0,1,.53-.22Zm-19.5-1.5a2.25,2.25,0,0,0-1.59.66,2.28,2.28,0,0,0-.66,1.59v13.5a2.29,2.29,0,0,0,.66,1.6,2.24,2.24,0,0,0,1.59.65h19.5a2.24,2.24,0,0,0,1.59-.65,2.29,2.29,0,0,0,.66-1.6V46.36a2.28,2.28,0,0,0-.66-1.59,2.25,2.25,0,0,0-1.59-.66Z"/>
        <path className="cls-3" d="M95.13,49.36a.79.79,0,0,1,.22-.53.75.75,0,0,1,.53-.22h13.5a.75.75,0,0,1,.53.22.76.76,0,0,1,0,1.07.74.74,0,0,1-.53.21H95.88a.74.74,0,0,1-.53-.21A.79.79,0,0,1,95.13,49.36Zm0,3.75a.79.79,0,0,1,.22-.53.75.75,0,0,1,.53-.22h13.5a.75.75,0,0,1,.53.22.76.76,0,0,1,0,1.07.74.74,0,0,1-.53.21H95.88a.74.74,0,0,1-.53-.21A.79.79,0,0,1,95.13,53.11Zm0,3.75a.79.79,0,0,1,.22-.53.75.75,0,0,1,.53-.22h9a.75.75,0,0,1,.53.22.76.76,0,0,1,0,1.07.74.74,0,0,1-.53.21h-9a.74.74,0,0,1-.53-.21A.79.79,0,0,1,95.13,56.86Z"/>
        <circle className="cls-5" cx="45.93" cy="54.14" r="20" style={{fill:"85A2E0"}}/>
        <path className="cls-3" d="M51.88,55.52a29,29,0,0,1-2.94,4.61A46.64,46.64,0,0,1,45.63,64a48.63,48.63,0,0,1-3.31-3.85,29,29,0,0,1-2.94-4.61,10.38,10.38,0,0,1-1.25-4.41,7.5,7.5,0,0,1,15,0A10.38,10.38,0,0,1,51.88,55.52ZM45.63,66.11s9-8.52,9-15a9,9,0,0,0-18,0C36.63,57.59,45.63,66.11,45.63,66.11Z"/>
        <path className="cls-3" d="M45.63,54.11a3,3,0,0,1-2.12-.87,3,3,0,0,1,2.12-5.13,3,3,0,1,1,0,6Zm0,1.5a4.5,4.5,0,1,0-4.5-4.5,4.49,4.49,0,0,0,4.5,4.5Z"/>
        <circle className="cls-6" cx="45.93" cy="104.14" r="20" style={{fill:"85E0C3"}}/>
        <path className="cls-3" d="M39.1,94.36a1.09,1.09,0,0,0-.33-.27,1,1,0,0,0-.41-.12,1,1,0,0,0-.42.07,1,1,0,0,0-.36.23L36,95.82a2.57,2.57,0,0,0-.68,2.66,26.5,26.5,0,0,0,16.17,16.16,2.57,2.57,0,0,0,2.65-.67l1.55-1.56a1,1,0,0,0,.23-.35,1.05,1.05,0,0,0,.07-.43,1,1,0,0,0-.12-.41,1.09,1.09,0,0,0-.27-.33l-3.46-2.69a1.14,1.14,0,0,0-.42-.19,1,1,0,0,0-.45,0l-3.29.82a2.61,2.61,0,0,1-1.33,0,2.58,2.58,0,0,1-1.15-.67l-3.69-3.69a2.52,2.52,0,0,1-.67-1.15,2.61,2.61,0,0,1,0-1.33L42,98.69a1,1,0,0,0,0-.45,1,1,0,0,0-.19-.42Zm-2.66-1.22a2.7,2.7,0,0,1,.93-.6,2.54,2.54,0,0,1,1.09-.16,2.55,2.55,0,0,1,1.9,1l2.69,3.46a2.62,2.62,0,0,1,.48,2.24l-.82,3.29a1,1,0,0,0,0,.51,1.07,1.07,0,0,0,.26.45L46.66,107a1.07,1.07,0,0,0,.45.26.89.89,0,0,0,.51,0l3.29-.82a2.71,2.71,0,0,1,1.17,0,2.51,2.51,0,0,1,1.07.5l3.46,2.69a2.61,2.61,0,0,1,.24,3.91L55.3,115.1A4.17,4.17,0,0,1,51,116.15,28.11,28.11,0,0,1,33.84,99a4.17,4.17,0,0,1,1.06-4.31l1.55-1.55Z"/>
        </g>
    </g>
</svg>