<?xml version="1.0" encoding="utf-8"?>
<!-- Generator: Adobe Illustrator 25.4.1, SVG Export Plug-In . SVG Version: 6.00 Build 0)  -->
<svg version="1.1" id="Layer_1" xmlns="http://www.w3.org/2000/svg" xmlns:xlink="http://www.w3.org/1999/xlink" x="0px" y="0px"
	 viewBox="0 0 249.8 79.2" style="enable-background:new 0 0 249.8 79.2;" xml:space="preserve">
<style type="text/css">
	.st0{fill:url(#SVGID_1_);stroke:#3F3F3F;stroke-miterlimit:10;}
	.st1{fill:url(#SVGID_00000183946987649990418500000010497846427199024302_);}
	.st2{fill:url(#SVGID_00000047034855816958321930000007575562366828025269_);}
	.st3{fill:url(#SVGID_00000106118237748659040260000001768184426954684062_);}
	.st4{fill:url(#SVGID_00000133500381027261536370000000770748603250740375_);}
	.st5{fill:url(#SVGID_00000140717036047188769670000006096307776963142059_);}
	.st6{fill:url(#SVGID_00000008112618225232320240000011821692781487659943_);}
	.st7{fill:url(#SVGID_00000142888103859600075580000013975375357086983049_);}
	.st8{fill:url(#SVGID_00000021837893232338145610000008963904250720917650_);}
	.st9{fill:url(#SVGID_00000011012522989418188350000001167730510798508946_);}
	.st10{fill:url(#SVGID_00000065045585110754398880000010757483291197648797_);}
</style>
<g>
	
		<linearGradient id="SVGID_1_" gradientUnits="userSpaceOnUse" x1="43.3386" y1="-487.1481" x2="198.9654" y2="-611.5257" gradientTransform="matrix(1 0 0 -1 0 -509.1698)">
		<stop  offset="0.19" style="stop-color:#C0B6ED"/>
		<stop  offset="0.35" style="stop-color:#CFC5ED"/>
		<stop  offset="0.55" style="stop-color:#DDD2EE"/>
		<stop  offset="0.74" style="stop-color:#E1D6EE"/>
	</linearGradient>
	<path class="st0" d="M35.5,79.6c-6.6,0-12.9-3.3-17.6-9.1c-4.7-5.8-7.3-13.7-7.3-22V31.8c0-8.3,2.6-16.2,7.3-22
		c4.7-5.8,11-9.1,17.6-9.1h171.4c3.3,0,6.5,0.8,9.5,2.4s5.8,3.9,8.1,6.7c2.3,2.9,4.1,6.3,5.4,10.1c1.2,3.8,1.9,7.8,1.9,11.9v16.7
		c0,4.1-0.6,8.1-1.9,11.9c-1.2,3.8-3.1,7.2-5.4,10.1c-2.3,2.9-5,5.2-8.1,6.7c-3,1.6-6.2,2.4-9.5,2.4H35.5z M43.5,8.5
		c-6.8,0-13.4,3.4-18.2,9.4c-4.8,6-7.5,14.2-7.5,22.8c0,8.5,2.7,16.7,7.5,22.8c4.8,6,11.4,9.4,18.2,9.4h155.4
		c6.8,0,13.4-3.4,18.2-9.4c4.8-6,7.5-14.2,7.5-22.8c0-8.5-2.7-16.7-7.5-22.8c-4.8-6-11.4-9.4-18.2-9.4H43.5z"/>
	<g>
		
			<linearGradient id="SVGID_00000041272483420533772450000007190101998987704716_" gradientUnits="userSpaceOnUse" x1="26.3437" y1="-139.9716" x2="57.5918" y2="-114.9981">
			<stop  offset="0.19" style="stop-color:#C0B6ED"/>
			<stop  offset="0.35" style="stop-color:#CFC5ED"/>
			<stop  offset="0.55" style="stop-color:#DDD2EE"/>
			<stop  offset="0.74" style="stop-color:#E1D6EE"/>
		</linearGradient>
		<circle style="fill:url(#SVGID_00000041272483420533772450000007190101998987704716_);" cx="42" cy="-127.5" r="20"/>
		
			<linearGradient id="SVGID_00000017505689753933695650000004752911439329437614_" gradientUnits="userSpaceOnUse" x1="34.0888" y1="-136.1424" x2="48.7142" y2="-124.4537">
			<stop  offset="0.19" style="stop-color:#C0B6ED"/>
			<stop  offset="0.35" style="stop-color:#CFC5ED"/>
			<stop  offset="0.55" style="stop-color:#DDD2EE"/>
			<stop  offset="0.74" style="stop-color:#E1D6EE"/>
		</linearGradient>
		<path style="fill:url(#SVGID_00000017505689753933695650000004752911439329437614_);" d="M48.2-127.2c-0.8,1.6-1.9,3.2-2.9,4.6
			c-1,1.3-2.1,2.6-3.3,3.9c-1.2-1.2-2.3-2.5-3.3-3.9c-1.1-1.4-2.2-3-2.9-4.6c-0.8-1.6-1.3-3.1-1.3-4.4c0-2,0.8-3.9,2.2-5.3
			c1.4-1.4,3.3-2.2,5.3-2.2s3.9,0.8,5.3,2.2c1.4,1.4,2.2,3.3,2.2,5.3C49.5-130.3,49-128.8,48.2-127.2z M42-116.6c0,0,9-8.5,9-15
			c0-2.4-0.9-4.7-2.6-6.4c-1.7-1.7-4-2.6-6.4-2.6s-4.7,0.9-6.4,2.6c-1.7,1.7-2.6,4-2.6,6.4C33-125.1,42-116.6,42-116.6z"/>
		
			<linearGradient id="SVGID_00000116226164052235362930000006678070380055634618_" gradientUnits="userSpaceOnUse" x1="38.4524" y1="-134.3944" x2="45.483" y2="-128.7755">
			<stop  offset="0.19" style="stop-color:#C0B6ED"/>
			<stop  offset="0.35" style="stop-color:#CFC5ED"/>
			<stop  offset="0.55" style="stop-color:#DDD2EE"/>
			<stop  offset="0.74" style="stop-color:#E1D6EE"/>
		</linearGradient>
		<path style="fill:url(#SVGID_00000116226164052235362930000006678070380055634618_);" d="M42-128.6c-0.8,0-1.6-0.3-2.1-0.9
			c-0.6-0.6-0.9-1.3-0.9-2.1c0-0.8,0.3-1.6,0.9-2.1c0.6-0.6,1.3-0.9,2.1-0.9s1.6,0.3,2.1,0.9c0.6,0.6,0.9,1.3,0.9,2.1
			c0,0.8-0.3,1.6-0.9,2.1C43.5-128.9,42.8-128.6,42-128.6z M42-127.1c1.2,0,2.3-0.5,3.2-1.3c0.8-0.8,1.3-2,1.3-3.2
			c0-1.2-0.5-2.3-1.3-3.2c-0.8-0.8-2-1.3-3.2-1.3s-2.3,0.5-3.2,1.3c-0.8,0.8-1.3,2-1.3,3.2c0,1.2,0.5,2.3,1.3,3.2
			C39.6-127.6,40.8-127.1,42-127.1L42-127.1z"/>
	</g>
	<g>
		
			<linearGradient id="SVGID_00000164507321653049122520000018235881596528883134_" gradientUnits="userSpaceOnUse" x1="74.3437" y1="-139.9716" x2="105.5918" y2="-114.9981">
			<stop  offset="0.19" style="stop-color:#C0B6ED"/>
			<stop  offset="0.35" style="stop-color:#CFC5ED"/>
			<stop  offset="0.55" style="stop-color:#DDD2EE"/>
			<stop  offset="0.74" style="stop-color:#E1D6EE"/>
		</linearGradient>
		<circle style="fill:url(#SVGID_00000164507321653049122520000018235881596528883134_);" cx="90" cy="-127.5" r="20"/>
		
			<linearGradient id="SVGID_00000101810686126876530270000003869076499303718330_" gradientUnits="userSpaceOnUse" x1="78.9684" y1="-136.9406" x2="100.9671" y2="-119.3592">
			<stop  offset="0.19" style="stop-color:#C0B6ED"/>
			<stop  offset="0.35" style="stop-color:#CFC5ED"/>
			<stop  offset="0.55" style="stop-color:#DDD2EE"/>
			<stop  offset="0.74" style="stop-color:#E1D6EE"/>
		</linearGradient>
		<path style="fill:url(#SVGID_00000101810686126876530270000003869076499303718330_);" d="M99.7-135.6c0.2,0,0.4,0.1,0.5,0.2
			c0.1,0.1,0.2,0.3,0.2,0.5v13.5c0,0.2-0.1,0.4-0.2,0.5c-0.1,0.1-0.3,0.2-0.5,0.2H80.2c-0.2,0-0.4-0.1-0.5-0.2
			c-0.1-0.1-0.2-0.3-0.2-0.5v-13.5c0-0.2,0.1-0.4,0.2-0.5c0.1-0.1,0.3-0.2,0.5-0.2H99.7z M80.2-137.1c-0.6,0-1.2,0.2-1.6,0.7
			c-0.4,0.4-0.7,1-0.7,1.6v13.5c0,0.6,0.2,1.2,0.7,1.6c0.4,0.4,1,0.7,1.6,0.7h19.5c0.6,0,1.2-0.2,1.6-0.7c0.4-0.4,0.7-1,0.7-1.6
			v-13.5c0-0.6-0.2-1.2-0.7-1.6c-0.4-0.4-1-0.7-1.6-0.7H80.2z"/>
		
			<linearGradient id="SVGID_00000175319127408140726380000001980340696627797389_" gradientUnits="userSpaceOnUse" x1="83.434" y1="-133.3717" x2="94.6726" y2="-124.3897">
			<stop  offset="0.19" style="stop-color:#C0B6ED"/>
			<stop  offset="0.35" style="stop-color:#CFC5ED"/>
			<stop  offset="0.55" style="stop-color:#DDD2EE"/>
			<stop  offset="0.74" style="stop-color:#E1D6EE"/>
		</linearGradient>
		<path style="fill:url(#SVGID_00000175319127408140726380000001980340696627797389_);" d="M82.5-131.9c0-0.2,0.1-0.4,0.2-0.5
			c0.1-0.1,0.3-0.2,0.5-0.2h13.5c0.2,0,0.4,0.1,0.5,0.2c0.1,0.1,0.2,0.3,0.2,0.5s-0.1,0.4-0.2,0.5c-0.1,0.1-0.3,0.2-0.5,0.2H83.2
			c-0.2,0-0.4-0.1-0.5-0.2C82.5-131.5,82.5-131.7,82.5-131.9z M82.5-128.1c0-0.2,0.1-0.4,0.2-0.5c0.1-0.1,0.3-0.2,0.5-0.2h13.5
			c0.2,0,0.4,0.1,0.5,0.2c0.1,0.1,0.2,0.3,0.2,0.5c0,0.2-0.1,0.4-0.2,0.5c-0.1,0.1-0.3,0.2-0.5,0.2H83.2c-0.2,0-0.4-0.1-0.5-0.2
			C82.5-127.8,82.5-128,82.5-128.1z M82.5-124.4c0-0.2,0.1-0.4,0.2-0.5c0.1-0.1,0.3-0.2,0.5-0.2h9c0.2,0,0.4,0.1,0.5,0.2
			c0.1,0.1,0.2,0.3,0.2,0.5s-0.1,0.4-0.2,0.5c-0.1,0.1-0.3,0.2-0.5,0.2h-9c-0.2,0-0.4-0.1-0.5-0.2C82.5-124,82.5-124.2,82.5-124.4z"
			/>
	</g>
	<g>
		
			<linearGradient id="SVGID_00000107582602397257253010000010560821338000267447_" gradientUnits="userSpaceOnUse" x1="122.3437" y1="-140.6367" x2="153.5917" y2="-115.6631">
			<stop  offset="0.19" style="stop-color:#C0B6ED"/>
			<stop  offset="0.35" style="stop-color:#CFC5ED"/>
			<stop  offset="0.55" style="stop-color:#DDD2EE"/>
			<stop  offset="0.74" style="stop-color:#E1D6EE"/>
		</linearGradient>
		<circle style="fill:url(#SVGID_00000107582602397257253010000010560821338000267447_);" cx="138" cy="-128.1" r="20"/>
		
			<linearGradient id="SVGID_00000031899609630229663120000010087664778745954730_" gradientUnits="userSpaceOnUse" x1="127.6471" y1="-136.8104" x2="150.276" y2="-118.7253">
			<stop  offset="0.19" style="stop-color:#C0B6ED"/>
			<stop  offset="0.35" style="stop-color:#CFC5ED"/>
			<stop  offset="0.55" style="stop-color:#DDD2EE"/>
			<stop  offset="0.74" style="stop-color:#E1D6EE"/>
		</linearGradient>
		<path style="fill:url(#SVGID_00000031899609630229663120000010087664778745954730_);" d="M133.1-138.6c-0.1-0.1-0.2-0.2-0.3-0.3
			c-0.1-0.1-0.3-0.1-0.4-0.1c-0.1,0-0.3,0-0.4,0.1c-0.1,0.1-0.3,0.1-0.4,0.2l-1.6,1.6c-0.7,0.7-1,1.8-0.7,2.7
			c1.3,3.7,3.4,7.1,6.3,9.9c2.8,2.8,6.2,4.9,9.9,6.3c0.9,0.3,1.9,0,2.7-0.7l1.6-1.6c0.1-0.1,0.2-0.2,0.2-0.4
			c0.1-0.1,0.1-0.3,0.1-0.4c0-0.1,0-0.3-0.1-0.4c-0.1-0.1-0.2-0.2-0.3-0.3l-3.5-2.7c-0.1-0.1-0.3-0.2-0.4-0.2c-0.2,0-0.3,0-0.5,0
			l-3.3,0.8c-0.4,0.1-0.9,0.1-1.3,0c-0.4-0.1-0.8-0.4-1.2-0.7l-3.7-3.7c-0.3-0.3-0.6-0.7-0.7-1.2c-0.1-0.4-0.1-0.9,0-1.3l0.8-3.3
			c0-0.1,0-0.3,0-0.5c0-0.2-0.1-0.3-0.2-0.4L133.1-138.6z M130.4-139.8c0.3-0.3,0.6-0.5,0.9-0.6c0.3-0.1,0.7-0.2,1.1-0.2
			c0.4,0,0.7,0.1,1.1,0.3c0.3,0.2,0.6,0.4,0.8,0.7l2.7,3.5c0.5,0.6,0.7,1.5,0.5,2.2l-0.8,3.3c0,0.2,0,0.3,0,0.5
			c0,0.2,0.1,0.3,0.3,0.4l3.7,3.7c0.1,0.1,0.3,0.2,0.4,0.3c0.2,0,0.3,0,0.5,0l3.3-0.8c0.4-0.1,0.8-0.1,1.2,0
			c0.4,0.1,0.8,0.3,1.1,0.5l3.5,2.7c1.2,1,1.4,2.8,0.2,3.9l-1.6,1.6c-1.1,1.1-2.8,1.6-4.3,1.1c-4-1.4-7.6-3.7-10.5-6.6
			c-3-3-5.2-6.6-6.6-10.5c-0.5-1.5-0.1-3.2,1.1-4.3L130.4-139.8L130.4-139.8z"/>
	</g>
	<g>
		
			<linearGradient id="SVGID_00000158006178122647243820000015130952782632498858_" gradientUnits="userSpaceOnUse" x1="170.3437" y1="-140.6367" x2="201.5918" y2="-115.6631">
			<stop  offset="0.19" style="stop-color:#C0B6ED"/>
			<stop  offset="0.35" style="stop-color:#CFC5ED"/>
			<stop  offset="0.55" style="stop-color:#DDD2EE"/>
			<stop  offset="0.74" style="stop-color:#E1D6EE"/>
		</linearGradient>
		<circle style="fill:url(#SVGID_00000158006178122647243820000015130952782632498858_);" cx="186" cy="-128.1" r="20"/>
		
			<linearGradient id="SVGID_00000135670896074085633020000007612878738004200116_" gradientUnits="userSpaceOnUse" x1="175.678" y1="-134.4904" x2="195.4899" y2="-118.6567">
			<stop  offset="0.19" style="stop-color:#C0B6ED"/>
			<stop  offset="0.35" style="stop-color:#CFC5ED"/>
			<stop  offset="0.55" style="stop-color:#DDD2EE"/>
			<stop  offset="0.74" style="stop-color:#E1D6EE"/>
		</linearGradient>
		<path style="fill:url(#SVGID_00000135670896074085633020000007612878738004200116_);" d="M195.7-119.9c0,0,1.5,0,1.5-1.5
			s-1.5-6-7.5-6s-7.5,4.5-7.5,6s1.5,1.5,1.5,1.5H195.7z M183.8-121.4C183.7-121.4,183.7-121.4,183.8-121.4c0-0.4,0.2-1.6,1.1-2.6
			c0.8-1,2.3-1.9,4.9-1.9c2.6,0,4,0.9,4.9,1.9c0.9,1,1.1,2.2,1.1,2.6l0,0c0,0,0,0,0,0H183.8L183.8-121.4z M189.7-130.4
			c0.8,0,1.6-0.3,2.1-0.9c0.6-0.6,0.9-1.3,0.9-2.1c0-0.8-0.3-1.6-0.9-2.1c-0.6-0.6-1.3-0.9-2.1-0.9s-1.6,0.3-2.1,0.9
			c-0.6,0.6-0.9,1.3-0.9,2.1c0,0.8,0.3,1.6,0.9,2.1C188.2-130.7,188.9-130.4,189.7-130.4z M194.2-133.4c0,0.6-0.1,1.2-0.3,1.7
			c-0.2,0.5-0.6,1-1,1.5c-0.4,0.4-0.9,0.7-1.5,1c-0.5,0.2-1.1,0.3-1.7,0.3s-1.2-0.1-1.7-0.3c-0.5-0.2-1-0.6-1.5-1
			c-0.4-0.4-0.7-0.9-1-1.5c-0.2-0.5-0.3-1.1-0.3-1.7c0-1.2,0.5-2.3,1.3-3.2c0.8-0.8,2-1.3,3.2-1.3s2.3,0.5,3.2,1.3
			C193.7-135.7,194.2-134.6,194.2-133.4L194.2-133.4z M183.6-127c-0.6-0.2-1.2-0.3-1.8-0.4c-0.4,0-0.7,0-1.1,0c-6,0-7.5,4.5-7.5,6
			c0,1,0.5,1.5,1.5,1.5h6.3c-0.2-0.5-0.3-1-0.3-1.5c0-1.5,0.6-3.1,1.6-4.4C182.7-126.2,183.1-126.6,183.6-127z M180.6-125.9
			c-0.9,1.3-1.4,2.9-1.4,4.5h-4.5c0-0.4,0.2-1.5,1.1-2.6C176.7-124.9,178.1-125.9,180.6-125.9L180.6-125.9z M175.5-132.6
			c0-1.2,0.5-2.3,1.3-3.2c0.8-0.8,2-1.3,3.2-1.3s2.3,0.5,3.2,1.3c0.8,0.8,1.3,2,1.3,3.2c0,1.2-0.5,2.3-1.3,3.2
			c-0.8,0.8-2,1.3-3.2,1.3s-2.3-0.5-3.2-1.3C175.9-130.3,175.5-131.5,175.5-132.6L175.5-132.6z M180-135.6c-0.8,0-1.6,0.3-2.1,0.9
			c-0.6,0.6-0.9,1.3-0.9,2.1c0,0.8,0.3,1.6,0.9,2.1c0.6,0.6,1.3,0.9,2.1,0.9s1.6-0.3,2.1-0.9c0.6-0.6,0.9-1.3,0.9-2.1
			c0-0.8-0.3-1.6-0.9-2.1C181.5-135.3,180.8-135.6,180-135.6z"/>
	</g>
</g>
</svg>
