<svg xmlns="http://www.w3.org/2000/svg" xmlns:xlink="http://www.w3.org/1999/xlink" viewBox="0 0 147.95 154.14">
    <defs>
    <style>.cls-1{fill:url(#linear-gradient);}.cls-2{fill:#e085a2;}.cls-3{fill:#3f3f3f;}
    </style>
    <linearGradient id="linear-gradient" x1="20.57" y1="130.48" x2="127.38" y2="23.66" gradientUnits="userSpaceOnUse">
        <stop offset="0.19" stop-color="#c0b6ed"/>
        <stop offset="0.35" stop-color="#cfc5ed"/>
        <stop offset="0.55" stop-color="#ddd2ee"/>
        <stop offset="0.74" stop-color="#e1d6ee"/>
    </linearGradient>
    </defs>
    <g id="Layer_2" data-name="Layer 2">
        <g id="Layer_1-2" data-name="Layer 1">
            <path class="cls-1" d="M74,0C33.13,0,0,34.52,0,77.07s33.13,77.07,74,77.07,74-34.52,74-77.07S114.82,0,74,0Zm0,148.64c-37.93,0-68.69-32-68.69-71.57S36,5.5,74,5.5s68.7,32,68.7,71.57S111.91,148.64,74,148.64Z"/>
            <circle cx="45.93" cy="53.14" r="20"/>
            <path d="M51.84,54.26a28.31,28.31,0,0,1-2.94,4.61,46.64,46.64,0,0,1-3.31,3.85,48.63,48.63,0,0,1-3.31-3.85,29.73,29.73,0,0,1-2.94-4.61,10.42,10.42,0,0,1-1.25-4.41,7.5,7.5,0,1,1,15,0A10.28,10.28,0,0,1,51.84,54.26ZM45.59,64.85s9-8.53,9-15a9,9,0,0,0-18,0C36.59,56.32,45.59,64.85,45.59,64.85Z"/>
        </g>
        </g>
</svg>