<svg width="24" height="24" viewBox="0 0 24 24" fill="none" xmlns="http://www.w3.org/2000/svg">
<path d="M16.4549 7.455C16.6662 7.25383 16.9474 7.14262 17.2391 7.14482C17.5308 7.14703 17.8103 7.26249 18.0185 7.46683C18.2268 7.67117 18.3475 7.94841 18.3552 8.24006C18.3629 8.5317 18.257 8.81494 18.0599 9.03L12.0749 16.515C11.972 16.6258 11.8477 16.7148 11.7097 16.7765C11.5716 16.8383 11.4225 16.8716 11.2712 16.8744C11.12 16.8772 10.9698 16.8494 10.8295 16.7928C10.6892 16.7363 10.5618 16.652 10.4549 16.545L6.48587 12.576C6.37534 12.473 6.28669 12.3488 6.2252 12.2108C6.16371 12.0728 6.13065 11.9238 6.12798 11.7728C6.12532 11.6217 6.1531 11.4717 6.20969 11.3316C6.26627 11.1915 6.35048 11.0643 6.45731 10.9574C6.56414 10.8506 6.69139 10.7664 6.83147 10.7098C6.97156 10.6532 7.1216 10.6254 7.27265 10.6281C7.42371 10.6308 7.57268 10.6638 7.71068 10.7253C7.84868 10.7868 7.97288 10.8755 8.07587 10.986L11.2169 14.1255L16.4264 7.488C16.4358 7.47645 16.4458 7.46543 16.4564 7.455H16.4549Z" fill="#2B46CF"/>
</svg>
