<svg width="18" height="18" viewBox="0 0 18 18" fill="none" xmlns="http://www.w3.org/2000/svg">
<path d="M9 16.875C6.91142 16.875 4.90838 16.0453 3.43153 14.5685C1.95468 13.0916 1.125 11.0886 1.125 9C1.125 6.91142 1.95468 4.90838 3.43153 3.43153C4.90838 1.95468 6.91142 1.125 9 1.125C11.0886 1.125 13.0916 1.95468 14.5685 3.43153C16.0453 4.90838 16.875 6.91142 16.875 9C16.875 11.0886 16.0453 13.0916 14.5685 14.5685C13.0916 16.0453 11.0886 16.875 9 16.875ZM9 18C11.3869 18 13.6761 17.0518 15.364 15.364C17.0518 13.6761 18 11.3869 18 9C18 6.61305 17.0518 4.32387 15.364 2.63604C13.6761 0.948212 11.3869 0 9 0C6.61305 0 4.32387 0.948212 2.63604 2.63604C0.948212 4.32387 0 6.61305 0 9C0 11.3869 0.948212 13.6761 2.63604 15.364C4.32387 17.0518 6.61305 18 9 18Z" fill="#696969"/>
<path d="M9 4.5C9.14918 4.5 9.29226 4.55926 9.39775 4.66475C9.50324 4.77024 9.5625 4.91332 9.5625 5.0625V8.4375H12.9375C13.0867 8.4375 13.2298 8.49676 13.3352 8.60225C13.4407 8.70774 13.5 8.85082 13.5 9C13.5 9.14918 13.4407 9.29226 13.3352 9.39775C13.2298 9.50324 13.0867 9.5625 12.9375 9.5625H9.5625V12.9375C9.5625 13.0867 9.50324 13.2298 9.39775 13.3352C9.29226 13.4407 9.14918 13.5 9 13.5C8.85082 13.5 8.70774 13.4407 8.60225 13.3352C8.49676 13.2298 8.4375 13.0867 8.4375 12.9375V9.5625H5.0625C4.91332 9.5625 4.77024 9.50324 4.66475 9.39775C4.55926 9.29226 4.5 9.14918 4.5 9C4.5 8.85082 4.55926 8.70774 4.66475 8.60225C4.77024 8.49676 4.91332 8.4375 5.0625 8.4375H8.4375V5.0625C8.4375 4.91332 8.49676 4.77024 8.60225 4.66475C8.70774 4.55926 8.85082 4.5 9 4.5Z" fill="#696969"/>
</svg>
